STARTFONT 2.1
COMMENT xsymb0_14.bdf --- v3.4, minor appearance change of Adobe symbol font
COMMENT 
COMMENT $XConsortium: symb14.bdf,v 1.7 94/04/10 21:36:19 gildea Exp $
COMMENT 
COMMENT  Copyright 1984, 1987 Adobe Systems, Inc.
COMMENT  Portions Copyright 1988 Digital Equipment Corporation
COMMENT  Portions Copyright 1997-1998 Free Software Foundation, Inc.
COMMENT 
COMMENT  Adobe is a registered trademark of Adobe Systems, Inc.  Permission 
COMMENT  to use these trademarks is hereby granted only in association with the
COMMENT  images described in this file.
COMMENT 
COMMENT  Permission to use, copy, modify, and distribute this software and
COMMENT  its documentation for any purpose and without fee is hereby granted,
COMMENT  provided that the above copyright notices appear in all copies and
COMMENT  that both those copyright notices and this permission notice appear
COMMENT  in supporting documentation, and that the names of Adobe Systems and
COMMENT  Digital Equipment Corporation not be used in advertising or
COMMENT  publicity pertaining to distribution of the software without
COMMENT  specific, written prior permission.  Adobe Systems and Digital
COMMENT  Equipment Corporation make no representations about the suitability
COMMENT  of this software for any purpose.  It is provided "as is" without
COMMENT  express or implied warranty.
COMMENT 
COMMENT  ADOBE SYSTEMS AND DIGITAL EQUIPMENT CORPORATION DISCLAIM ALL
COMMENT  WARRANTIES WITH REGARD TO THIS SOFTWARE, INCLUDING ALL IMPLIED
COMMENT  WARRANTIES OF MERCHANTABILITY AND FITNESS, IN NO EVENT SHALL ADOBE
COMMENT  SYSTEMS AND DIGITAL EQUIPMENT CORPORATION BE LIABLE FOR ANY SPECIAL,
COMMENT  INDIRECT OR CONSEQUENTIAL DAMAGES OR ANY DAMAGES WHATSOEVER
COMMENT  RESULTING FROM LOSS OF USE, DATA OR PROFITS, WHETHER IN AN ACTION OF
COMMENT  CONTRACT, NEGLIGENCE OR OTHER TORTIOUS ACTION, ARISING OUT OF OR IN
COMMENT  CONNECTION WITH THE USE OR PERFORMANCE OF THIS SOFTWARE.
COMMENT 
COMMENT 

STARTCHAR space
ENCODING 32
SWIDTH 250 0
DWIDTH 4 0
BBX 1 1 1 5
BITMAP
00
ENDCHAR
STARTCHAR exclam
ENCODING 33
SWIDTH 333 0
DWIDTH 5 0
BBX 1 10 2 5
BITMAP
80
80
80
80
80
80
80
00
80
80
ENDCHAR
STARTCHAR universal
ENCODING 34
SWIDTH 713 0
DWIDTH 9 0
BBX 9 10 0 5
BITMAP
8080
4100
4100
3e00
2200
2200
1400
1400
0800
0800
ENDCHAR
STARTCHAR numbersign
ENCODING 35
SWIDTH 500 0
DWIDTH 7 0
BBX 7 10 0 5
BITMAP
14
14
14
7e
28
28
fc
50
50
50
ENDCHAR
STARTCHAR existential
ENCODING 36
SWIDTH 549 0
DWIDTH 8 0
BBX 6 10 1 5
BITMAP
fc
04
04
04
fc
04
04
04
04
fc
ENDCHAR
STARTCHAR percent
ENCODING 37
SWIDTH 833 0
DWIDTH 12 0
BBX 9 10 1 5
BITMAP
7980
9700
9200
9400
6c00
1b00
1480
2480
4480
c300
ENDCHAR
STARTCHAR ampersand
ENCODING 38
SWIDTH 778 0
DWIDTH 11 0
BBX 9 10 1 5
BITMAP
3000
4800
4800
7000
2700
7200
ca00
8400
ce80
7b00
ENDCHAR
STARTCHAR suchthat
ENCODING 39
SWIDTH 439 0
DWIDTH 8 0
BBX 6 7 1 6
BITMAP
f0
08
04
fc
04
08
f0
ENDCHAR
STARTCHAR parenleft
ENCODING 40
SWIDTH 333 0
DWIDTH 5 0
BBX 3 13 1 2
BITMAP
20
40
40
80
80
80
80
80
80
80
40
40
20
ENDCHAR
STARTCHAR parenright
ENCODING 41
SWIDTH 333 0
DWIDTH 5 0
BBX 3 13 1 2
BITMAP
80
40
40
20
20
20
20
20
20
20
40
40
80
ENDCHAR
STARTCHAR asteriskmath
ENCODING 42
SWIDTH 500 0
DWIDTH 7 0
BBX 5 6 1 7
BITMAP
20
a8
70
70
a8
20
ENDCHAR
STARTCHAR plus
ENCODING 43
SWIDTH 549 0
DWIDTH 8 0
BBX 7 7 0 5
BITMAP
10
10
10
fe
10
10
10
ENDCHAR
STARTCHAR comma
ENCODING 44
SWIDTH 222 0
DWIDTH 3 0
BBX 2 3 1 3
BITMAP
c0
40
80
ENDCHAR
STARTCHAR minus
ENCODING 45
SWIDTH 556 0
DWIDTH 8 0
BBX 8 1 0 9
BITMAP
ff
ENDCHAR
STARTCHAR period
ENCODING 46
SWIDTH 250 0
DWIDTH 3 0
BBX 1 2 1 5
BITMAP
80
80
ENDCHAR
STARTCHAR slash
ENCODING 47
SWIDTH 278 0
DWIDTH 4 0
BBX 4 10 0 5
BITMAP
10
10
20
20
20
40
40
40
80
80
ENDCHAR
STARTCHAR zero
ENCODING 48
SWIDTH 500 0
DWIDTH 7 0
BBX 6 10 0 5
BITMAP
78
cc
84
84
84
84
84
84
cc
78
ENDCHAR
STARTCHAR one
ENCODING 49
SWIDTH 500 0
DWIDTH 7 0
BBX 5 10 1 5
BITMAP
20
e0
20
20
20
20
20
20
20
f8
ENDCHAR
STARTCHAR two
ENCODING 50
SWIDTH 500 0
DWIDTH 7 0
BBX 6 10 0 5
BITMAP
70
d8
88
08
18
10
20
40
c4
fc
ENDCHAR
STARTCHAR three
ENCODING 51
SWIDTH 500 0
DWIDTH 7 0
BBX 6 10 0 5
BITMAP
78
cc
84
0c
38
0c
04
04
cc
78
ENDCHAR
STARTCHAR four
ENCODING 52
SWIDTH 500 0
DWIDTH 7 0
BBX 6 10 0 5
BITMAP
08
18
18
28
68
48
88
fc
08
08
ENDCHAR
STARTCHAR five
ENCODING 53
SWIDTH 500 0
DWIDTH 7 0
BBX 5 10 1 5
BITMAP
78
40
80
e0
30
18
08
08
90
e0
ENDCHAR
STARTCHAR six
ENCODING 54
SWIDTH 500 0
DWIDTH 7 0
BBX 6 10 0 5
BITMAP
1c
30
40
40
f8
8c
84
84
cc
78
ENDCHAR
STARTCHAR seven
ENCODING 55
SWIDTH 500 0
DWIDTH 7 0
BBX 6 10 1 5
BITMAP
fc
84
08
08
10
10
20
20
40
40
ENDCHAR
STARTCHAR eight
ENCODING 56
SWIDTH 500 0
DWIDTH 7 0
BBX 5 10 1 5
BITMAP
70
d8
88
88
70
88
88
88
d8
70
ENDCHAR
STARTCHAR nine
ENCODING 57
SWIDTH 500 0
DWIDTH 7 0
BBX 6 10 0 5
BITMAP
78
cc
84
84
c4
78
18
10
60
c0
ENDCHAR
STARTCHAR colon
ENCODING 58
SWIDTH 278 0
DWIDTH 4 0
BBX 1 7 2 5
BITMAP
80
80
00
00
00
80
80
ENDCHAR
STARTCHAR semicolon
ENCODING 59
SWIDTH 278 0
DWIDTH 4 0
BBX 2 9 1 3
BITMAP
40
40
00
00
00
40
40
40
80
ENDCHAR
STARTCHAR less
ENCODING 60
SWIDTH 549 0
DWIDTH 8 0
BBX 7 7 1 5
BITMAP
02
0c
30
c0
30
0c
02
ENDCHAR
STARTCHAR equal
ENCODING 61
SWIDTH 549 0
DWIDTH 8 0
BBX 7 3 0 7
BITMAP
fe
00
fe
ENDCHAR
STARTCHAR greater
ENCODING 62
SWIDTH 549 0
DWIDTH 8 0
BBX 7 7 0 5
BITMAP
80
60
18
06
18
60
80
ENDCHAR
STARTCHAR question
ENCODING 63
SWIDTH 444 0
DWIDTH 6 0
BBX 5 10 0 5
BITMAP
70
88
88
08
10
20
20
00
20
20
ENDCHAR
STARTCHAR congruent
ENCODING 64
SWIDTH 549 0
DWIDTH 9 0
BBX 7 7 1 6
BITMAP
72
9c
00
00
fe
00
fe
ENDCHAR
STARTCHAR Alpha
ENCODING 65
SWIDTH 722 0
DWIDTH 11 0
BBX 9 10 1 5
BITMAP
0800
1c00
1400
1400
2200
2200
3e00
6300
4100
e380
ENDCHAR
STARTCHAR Beta
ENCODING 66
SWIDTH 667 0
DWIDTH 9 0
BBX 7 10 1 5
BITMAP
fc
46
42
46
7c
46
42
42
46
fc
ENDCHAR
STARTCHAR Chi
ENCODING 67
SWIDTH 722 0
DWIDTH 11 0
BBX 9 10 1 5
BITMAP
e380
4100
2200
3600
1c00
1400
2200
6300
4100
e380
ENDCHAR
STARTCHAR Delta
ENCODING 68
SWIDTH 612 0
DWIDTH 9 0
BBX 7 10 1 5
BITMAP
10
10
28
28
28
44
44
44
82
fe
ENDCHAR
STARTCHAR Epsilon
ENCODING 69
SWIDTH 611 0
DWIDTH 9 0
BBX 7 10 1 5
BITMAP
fe
42
40
44
7c
44
40
42
42
fe
ENDCHAR
STARTCHAR Phi
ENCODING 70
SWIDTH 763 0
DWIDTH 11 0
BBX 9 10 1 5
BITMAP
1c00
0800
7f00
c980
8880
8880
c980
7f00
0800
1c00
ENDCHAR
STARTCHAR Gamma
ENCODING 71
SWIDTH 603 0
DWIDTH 8 0
BBX 7 10 1 5
BITMAP
fe
42
40
40
40
40
40
40
40
e0
ENDCHAR
STARTCHAR Eta
ENCODING 72
SWIDTH 722 0
DWIDTH 11 0
BBX 9 10 1 5
BITMAP
e380
4100
4100
4100
7f00
4100
4100
4100
4100
e380
ENDCHAR
STARTCHAR Iota
ENCODING 73
SWIDTH 333 0
DWIDTH 5 0
BBX 3 10 1 5
BITMAP
e0
40
40
40
40
40
40
40
40
e0
ENDCHAR
STARTCHAR theta1
ENCODING 74
SWIDTH 631 0
DWIDTH 9 0
BBX 8 10 0 5
BITMAP
0c
0a
0a
66
a3
22
22
22
36
1c
ENDCHAR
STARTCHAR Kappa
ENCODING 75
SWIDTH 722 0
DWIDTH 10 0
BBX 8 10 1 5
BITMAP
ee
44
48
50
70
50
48
44
42
e7
ENDCHAR
STARTCHAR Lambda
ENCODING 76
SWIDTH 686 0
DWIDTH 10 0
BBX 9 10 0 5
BITMAP
0800
0800
1400
3600
2200
2200
6300
4100
4100
e380
ENDCHAR
STARTCHAR Mu
ENCODING 77
SWIDTH 889 0
DWIDTH 13 0
BBX 11 10 1 5
BITMAP
e0e0
60c0
5140
5140
5b40
4a40
4a40
4e40
4440
e4e0
ENDCHAR
STARTCHAR Nu
ENCODING 78
SWIDTH 722 0
DWIDTH 11 0
BBX 9 10 1 5
BITMAP
e380
6100
5100
5900
4900
4d00
4500
4700
4300
e100
ENDCHAR
STARTCHAR Omicron
ENCODING 79
SWIDTH 722 0
DWIDTH 10 0
BBX 8 10 1 5
BITMAP
3c
66
42
81
81
81
81
42
66
3c
ENDCHAR
STARTCHAR Pi
ENCODING 80
SWIDTH 768 0
DWIDTH 11 0
BBX 9 10 1 5
BITMAP
ff80
4100
4100
4100
4100
4100
4100
4100
4100
e380
ENDCHAR
STARTCHAR Theta
ENCODING 81
SWIDTH 741 0
DWIDTH 10 0
BBX 8 10 1 5
BITMAP
3c
66
42
a5
bd
a5
81
42
66
3c
ENDCHAR
STARTCHAR Rho
ENCODING 82
SWIDTH 556 0
DWIDTH 8 0
BBX 6 10 1 5
BITMAP
f8
4c
44
44
4c
78
40
40
40
e0
ENDCHAR
STARTCHAR Sigma
ENCODING 83
SWIDTH 592 0
DWIDTH 9 0
BBX 8 10 1 5
BITMAP
fe
c2
60
30
18
10
20
40
c1
ff
ENDCHAR
STARTCHAR Tau
ENCODING 84
SWIDTH 611 0
DWIDTH 9 0
BBX 7 10 1 5
BITMAP
fe
92
92
10
10
10
10
10
10
38
ENDCHAR
STARTCHAR Upsilon
ENCODING 85
SWIDTH 690 0
DWIDTH 9 0
BBX 9 10 0 5
BITMAP
e380
4100
2200
2200
1400
0800
0800
0800
0800
1c00
ENDCHAR
STARTCHAR sigma1
ENCODING 86
SWIDTH 439 0
DWIDTH 7 0
BBX 6 10 1 2
BITMAP
38
c0
80
80
80
60
38
04
24
38
ENDCHAR
STARTCHAR Omega
ENCODING 87
SWIDTH 768 0
DWIDTH 11 0
BBX 10 10 0 5
BITMAP
0c00
3300
2100
4080
4080
4080
4080
2100
9240
f3c0
ENDCHAR
STARTCHAR Xi
ENCODING 88
SWIDTH 645 0
DWIDTH 9 0
BBX 9 10 0 5
BITMAP
7f00
4100
0000
2200
3e00
2200
0000
0000
8080
ff80
ENDCHAR
STARTCHAR Psi
ENCODING 89
SWIDTH 795 0
DWIDTH 11 0
BBX 11 10 0 5
BITMAP
ce60
64c0
2480
2480
1f00
0400
0400
0400
0400
0e00
ENDCHAR
STARTCHAR Zeta
ENCODING 90
SWIDTH 611 0
DWIDTH 9 0
BBX 7 10 1 5
BITMAP
fe
82
04
08
10
10
20
40
82
fe
ENDCHAR
STARTCHAR bracketleft
ENCODING 91
SWIDTH 333 0
DWIDTH 5 0
BBX 3 13 1 2
BITMAP
e0
80
80
80
80
80
80
80
80
80
80
80
e0
ENDCHAR
STARTCHAR therefore
ENCODING 92
SWIDTH 863 0
DWIDTH 10 0
BBX 8 7 1 5
BITMAP
18
18
00
00
00
c3
c3
ENDCHAR
STARTCHAR bracketright
ENCODING 93
SWIDTH 333 0
DWIDTH 5 0
BBX 3 13 1 2
BITMAP
e0
20
20
20
20
20
20
20
20
20
20
20
e0
ENDCHAR
STARTCHAR perpendicular
ENCODING 94
SWIDTH 658 0
DWIDTH 10 0
BBX 9 10 0 5
BITMAP
0800
0800
0800
0800
0800
0800
0800
0800
0800
ff80
ENDCHAR
STARTCHAR underscore
ENCODING 95
SWIDTH 500 0
DWIDTH 7 0
BBX 7 1 0 3
BITMAP
fe
ENDCHAR
STARTCHAR radicalex
ENCODING 96
SWIDTH 500 0
DWIDTH 7 0
BBX 8 1 0 15
BITMAP
ff
ENDCHAR
STARTCHAR alpha
ENCODING 97
SWIDTH 631 0
DWIDTH 9 0
BBX 8 7 1 5
BITMAP
76
d4
88
88
88
d5
66
ENDCHAR
STARTCHAR beta
ENCODING 98
SWIDTH 549 0
DWIDTH 8 0
BBX 6 14 1 2
BITMAP
78
cc
84
8c
98
8c
84
84
84
cc
b8
80
80
80
ENDCHAR
STARTCHAR chi
ENCODING 99
SWIDTH 549 0
DWIDTH 8 0
BBX 8 10 0 2
BITMAP
c3
a6
24
3c
18
38
28
64
45
c3
ENDCHAR
STARTCHAR delta
ENCODING 100
SWIDTH 494 0
DWIDTH 7 0
BBX 5 11 1 5
BITMAP
70
98
80
40
70
98
88
88
88
d8
70
ENDCHAR
STARTCHAR epsilon
ENCODING 101
SWIDTH 439 0
DWIDTH 6 0
BBX 5 7 1 5
BITMAP
38
40
80
f0
80
c8
70
ENDCHAR
STARTCHAR phi
ENCODING 102
SWIDTH 521 0
DWIDTH 9 0
BBX 7 13 1 2
BITMAP
10
10
10
38
54
92
92
92
54
38
10
10
10
ENDCHAR
STARTCHAR gamma
ENCODING 103
SWIDTH 411 0
DWIDTH 6 0
BBX 6 10 0 2
BITMAP
c4
a4
24
28
28
18
18
10
30
30
ENDCHAR
STARTCHAR eta
ENCODING 104
SWIDTH 603 0
DWIDTH 8 0
BBX 7 10 0 2
BITMAP
6c
b2
22
22
22
22
22
02
02
02
ENDCHAR
STARTCHAR iota
ENCODING 105
SWIDTH 329 0
DWIDTH 4 0
BBX 3 7 1 5
BITMAP
80
80
80
80
80
a0
c0
ENDCHAR
STARTCHAR phi1
ENCODING 106
SWIDTH 603 0
DWIDTH 9 0
BBX 7 10 1 2
BITMAP
18
54
d2
92
92
54
38
10
10
10
ENDCHAR
STARTCHAR kappa
ENCODING 107
SWIDTH 549 0
DWIDTH 8 0
BBX 7 7 0 5
BITMAP
46
ca
50
70
58
4c
46
ENDCHAR
STARTCHAR lambda
ENCODING 108
SWIDTH 549 0
DWIDTH 9 0
BBX 8 10 1 5
BITMAP
60
50
10
10
28
28
48
44
85
83
ENDCHAR
STARTCHAR mu
ENCODING 109
SWIDTH 576 0
DWIDTH 8 0
BBX 7 9 1 3
BITMAP
88
88
88
88
88
9a
f6
80
c0
ENDCHAR
STARTCHAR nu
ENCODING 110
SWIDTH 521 0
DWIDTH 8 0
BBX 7 7 0 5
BITMAP
c6
42
22
22
14
14
08
ENDCHAR
STARTCHAR omicron
ENCODING 111
SWIDTH 549 0
DWIDTH 8 0
BBX 6 7 1 5
BITMAP
78
cc
84
84
84
cc
78
ENDCHAR
STARTCHAR pi
ENCODING 112
SWIDTH 549 0
DWIDTH 8 0
BBX 8 7 0 5
BITMAP
7e
a4
24
24
24
25
66
ENDCHAR
STARTCHAR theta
ENCODING 113
SWIDTH 521 0
DWIDTH 7 0
BBX 5 10 1 5
BITMAP
70
d8
88
88
f8
88
88
88
d8
70
ENDCHAR
STARTCHAR rho
ENCODING 114
SWIDTH 549 0
DWIDTH 8 0
BBX 6 10 1 2
BITMAP
78
cc
84
84
84
cc
b8
80
80
80
ENDCHAR
STARTCHAR sigma
ENCODING 115
SWIDTH 603 0
DWIDTH 8 0
BBX 7 7 1 5
BITMAP
7e
c8
84
84
84
cc
78
ENDCHAR
STARTCHAR tau
ENCODING 116
SWIDTH 439 0
DWIDTH 6 0
BBX 5 7 0 5
BITMAP
78
a0
20
20
20
28
30
ENDCHAR
STARTCHAR upsilon
ENCODING 117
SWIDTH 576 0
DWIDTH 8 0
BBX 7 7 0 5
BITMAP
64
a2
22
22
22
26
1c
ENDCHAR
STARTCHAR omega1
ENCODING 118
SWIDTH 713 0
DWIDTH 11 0
BBX 10 8 0 5
BITMAP
7fc0
a080
4440
4440
4440
4440
64c0
3b80
ENDCHAR
STARTCHAR omega
ENCODING 119
SWIDTH 686 0
DWIDTH 11 0
BBX 9 7 1 5
BITMAP
6300
8880
8880
8880
8880
c980
7700
ENDCHAR
STARTCHAR xi
ENCODING 120
SWIDTH 493 0
DWIDTH 7 0
BBX 6 15 1 2
BITMAP
20
40
38
20
40
78
20
40
80
80
c0
78
04
24
38
ENDCHAR
STARTCHAR psi
ENCODING 121
SWIDTH 686 0
DWIDTH 9 0
BBX 9 10 0 2
BITMAP
8880
4900
4900
4900
6b00
3e00
0800
0800
0800
0800
ENDCHAR
STARTCHAR zeta
ENCODING 122
SWIDTH 494 0
DWIDTH 7 0
BBX 6 14 1 2
BITMAP
20
44
3c
10
20
40
40
80
80
c0
78
04
24
38
ENDCHAR
STARTCHAR braceleft
ENCODING 123
SWIDTH 480 0
DWIDTH 7 0
BBX 5 13 1 2
BITMAP
18
20
20
20
20
40
80
40
20
20
20
20
18
ENDCHAR
STARTCHAR bar
ENCODING 124
SWIDTH 480 0
DWIDTH 3 0
BBX 1 8 1 6
BITMAP
80
80
80
80
80
80
80
80
ENDCHAR
STARTCHAR braceright
ENCODING 125
SWIDTH 480 0
DWIDTH 7 0
BBX 5 13 1 2
BITMAP
c0
20
20
20
20
10
08
10
20
20
20
20
c0
ENDCHAR
STARTCHAR similar
ENCODING 126
SWIDTH 549 0
DWIDTH 9 0
BBX 7 4 1 8
BITMAP
62
d2
96
8c
ENDCHAR
STARTCHAR Upsilon1
ENCODING 161
SWIDTH 620 0
DWIDTH 9 0
BBX 8 10 0 5
BITMAP
c6
69
2b
10
10
10
10
10
10
38
ENDCHAR
STARTCHAR minute
ENCODING 162
SWIDTH 247 0
DWIDTH 5 0
BBX 4 6 0 9
BITMAP
30
30
60
60
c0
80
ENDCHAR
STARTCHAR lessequal
ENCODING 163
SWIDTH 549 0
DWIDTH 9 0
BBX 7 9 1 5
BITMAP
02
0c
30
c0
30
0c
02
00
fe
ENDCHAR
STARTCHAR fraction
ENCODING 164
SWIDTH 167 0
DWIDTH 4 0
BBX 5 10 -1 5
BITMAP
08
08
10
10
20
20
40
40
80
80
ENDCHAR
STARTCHAR infinity
ENCODING 165
SWIDTH 713 0
DWIDTH 10 0
BBX 9 4 0 7
BITMAP
7700
9880
8c80
7700
ENDCHAR
STARTCHAR florin
ENCODING 166
SWIDTH 500 0
DWIDTH 7 0
BBX 7 13 0 2
BITMAP
06
0a
08
08
3c
10
10
10
20
20
20
a0
c0
ENDCHAR
STARTCHAR club
ENCODING 167
SWIDTH 753 0
DWIDTH 11 0
BBX 9 8 1 4
BITMAP
1c00
1c00
1c00
eb80
ff80
eb80
0800
0800
ENDCHAR
STARTCHAR diamond
ENCODING 168
SWIDTH 753 0
DWIDTH 11 0
BBX 7 7 2 5
BITMAP
10
38
7c
fe
7c
38
10
ENDCHAR
STARTCHAR heart
ENCODING 169
SWIDTH 753 0
DWIDTH 11 0
BBX 7 7 2 5
BITMAP
6c
fe
fe
fe
7c
38
10
ENDCHAR
STARTCHAR spade
ENCODING 170
SWIDTH 753 0
DWIDTH 11 0
BBX 9 8 1 4
BITMAP
0800
1c00
3e00
7f00
ff80
6b00
0800
0800
ENDCHAR
STARTCHAR arrowboth
ENCODING 171
SWIDTH 1042 0
DWIDTH 14 0
BBX 12 7 1 6
BITMAP
1080
2040
4020
fff0
4020
2040
1080
ENDCHAR
STARTCHAR arrowleft
ENCODING 172
SWIDTH 987 0
DWIDTH 14 0
BBX 12 7 1 6
BITMAP
1000
2000
4000
fff0
4000
2000
1000
ENDCHAR
STARTCHAR arrowup
ENCODING 173
SWIDTH 603 0
DWIDTH 9 0
BBX 7 12 1 3
BITMAP
10
38
54
92
10
10
10
10
10
10
10
10
ENDCHAR
STARTCHAR arrowright
ENCODING 174
SWIDTH 987 0
DWIDTH 14 0
BBX 12 7 1 6
BITMAP
0080
0040
0020
fff0
0020
0040
0080
ENDCHAR
STARTCHAR arrowdown
ENCODING 175
SWIDTH 603 0
DWIDTH 9 0
BBX 7 12 1 3
BITMAP
10
10
10
10
10
10
10
10
92
54
38
10
ENDCHAR
STARTCHAR degree
ENCODING 176
SWIDTH 400 0
DWIDTH 6 0
BBX 4 4 1 11
BITMAP
60
90
90
60
ENDCHAR
STARTCHAR plusminus
ENCODING 177
SWIDTH 549 0
DWIDTH 8 0
BBX 7 9 0 5
BITMAP
10
10
10
fe
10
10
10
00
fe
ENDCHAR
STARTCHAR second
ENCODING 178
SWIDTH 411 0
DWIDTH 6 0
BBX 7 3 -1 12
BITMAP
36
6c
90
ENDCHAR
STARTCHAR greaterequal
ENCODING 179
SWIDTH 549 0
DWIDTH 9 0
BBX 7 9 1 5
BITMAP
80
60
18
06
18
60
80
00
fe
ENDCHAR
STARTCHAR multiply
ENCODING 180
SWIDTH 549 0
DWIDTH 8 0
BBX 7 7 0 5
BITMAP
82
44
28
10
28
44
82
ENDCHAR
STARTCHAR proportional
ENCODING 181
SWIDTH 713 0
DWIDTH 10 0
BBX 8 4 1 8
BITMAP
77
88
88
77
ENDCHAR
STARTCHAR partialdiff
ENCODING 182
SWIDTH 494 0
DWIDTH 7 0
BBX 6 11 0 5
BITMAP
70
88
04
04
04
74
cc
84
84
c8
70
ENDCHAR
STARTCHAR bullet
ENCODING 183
SWIDTH 460 0
DWIDTH 7 0
BBX 5 5 1 7
BITMAP
70
f8
f8
f8
70
ENDCHAR
STARTCHAR divide
ENCODING 184
SWIDTH 549 0
DWIDTH 8 0
BBX 7 7 0 5
BITMAP
10
10
00
fe
00
10
10
ENDCHAR
STARTCHAR notequal
ENCODING 185
SWIDTH 549 0
DWIDTH 9 0
BBX 7 7 1 6
BITMAP
04
08
fe
10
fe
20
40
ENDCHAR
STARTCHAR equivalence
ENCODING 186
SWIDTH 549 0
DWIDTH 9 0
BBX 7 5 1 7
BITMAP
fe
00
fe
00
fe
ENDCHAR
STARTCHAR approxequal
ENCODING 187
SWIDTH 549 0
DWIDTH 9 0
BBX 7 5 1 7
BITMAP
72
9c
00
72
9c
ENDCHAR
STARTCHAR ellipsis
ENCODING 188
SWIDTH 1000 0
DWIDTH 13 0
BBX 9 2 2 5
BITMAP
8880
8880
ENDCHAR
STARTCHAR arrowvertex
ENCODING 189
SWIDTH 603 0
DWIDTH 9 0
BBX 1 20 4 -1
BITMAP
80
80
80
80
80
80
80
80
80
80
80
80
80
80
80
80
80
80
80
80
ENDCHAR
STARTCHAR arrowhorizex
ENCODING 190
SWIDTH 1000 0
DWIDTH 15 0
BBX 15 1 0 8
BITMAP
fffe
ENDCHAR
STARTCHAR carriagereturn
ENCODING 191
SWIDTH 658 0
DWIDTH 10 0
BBX 8 9 0 5
BITMAP
01
01
01
01
01
01
41
ff
40
ENDCHAR
STARTCHAR aleph
ENCODING 192
SWIDTH 823 0
DWIDTH 10 0
BBX 8 10 1 5
BITMAP
88
ce
66
24
74
9c
8c
46
63
e1
ENDCHAR
STARTCHAR Ifraktur
ENCODING 193
SWIDTH 686 0
DWIDTH 10 0
BBX 8 12 1 4
BITMAP
3f
61
42
46
24
06
03
01
61
f1
1a
0c
ENDCHAR
STARTCHAR Rfraktur
ENCODING 194
SWIDTH 795 0
DWIDTH 12 0
BBX 10 11 1 5
BITMAP
7300
9d80
8980
8b00
ce00
6a00
2900
0900
0900
6900
b0c0
ENDCHAR
STARTCHAR weierstrass
ENCODING 195
SWIDTH 987 0
DWIDTH 11 0
BBX 9 12 1 2
BITMAP
1000
2300
4580
8880
9080
d480
6900
6b00
b600
9000
9000
6000
ENDCHAR
STARTCHAR circlemultiply
ENCODING 196
SWIDTH 768 0
DWIDTH 11 0
BBX 9 9 1 5
BITMAP
1c00
6300
6300
9480
8880
9480
6300
6300
1c00
ENDCHAR
STARTCHAR circleplus
ENCODING 197
SWIDTH 768 0
DWIDTH 11 0
BBX 9 9 1 5
BITMAP
1c00
6b00
4900
8880
ff80
8880
4900
6b00
1c00
ENDCHAR
STARTCHAR emptyset
ENCODING 198
SWIDTH 823 0
DWIDTH 13 0
BBX 11 11 1 5
BITMAP
1f20
60c0
40c0
8120
8220
8420
8820
9020
6040
60c0
9f00
ENDCHAR
STARTCHAR intersection
ENCODING 199
SWIDTH 768 0
DWIDTH 11 0
BBX 9 8 1 6
BITMAP
3e00
4100
8080
8080
8080
8080
8080
8080
ENDCHAR
STARTCHAR union
ENCODING 200
SWIDTH 768 0
DWIDTH 11 0
BBX 9 8 1 6
BITMAP
8080
8080
8080
8080
8080
8080
4100
3e00
ENDCHAR
STARTCHAR propersuperset
ENCODING 201
SWIDTH 713 0
DWIDTH 10 0
BBX 8 7 1 6
BITMAP
fc
02
01
01
01
02
fc
ENDCHAR
STARTCHAR reflexsuperset
ENCODING 202
SWIDTH 713 0
DWIDTH 10 0
BBX 8 9 1 5
BITMAP
fc
02
01
01
01
02
fc
00
ff
ENDCHAR
STARTCHAR notsubset
ENCODING 203
SWIDTH 713 0
DWIDTH 10 0
BBX 8 9 1 5
BITMAP
02
3f
44
84
88
88
50
3f
20
ENDCHAR
STARTCHAR propersubset
ENCODING 204
SWIDTH 713 0
DWIDTH 10 0
BBX 8 7 1 6
BITMAP
3f
40
80
80
80
40
3f
ENDCHAR
STARTCHAR reflexsubset
ENCODING 205
SWIDTH 713 0
DWIDTH 10 0
BBX 8 9 1 5
BITMAP
3f
40
80
80
80
40
3f
00
ff
ENDCHAR
STARTCHAR element
ENCODING 206
SWIDTH 713 0
DWIDTH 8 0
BBX 6 7 1 6
BITMAP
3c
40
80
fc
80
40
3c
ENDCHAR
STARTCHAR notelement
ENCODING 207
SWIDTH 713 0
DWIDTH 8 0
BBX 6 9 1 5
BITMAP
04
3c
48
90
fc
90
60
3c
40
ENDCHAR
STARTCHAR angle
ENCODING 208
SWIDTH 768 0
DWIDTH 11 0
BBX 11 10 0 5
BITMAP
0040
0080
0100
0200
0400
0800
1000
2000
4000
ffe0
ENDCHAR
STARTCHAR gradient
ENCODING 209
SWIDTH 713 0
DWIDTH 11 0
BBX 9 11 1 5
BITMAP
ff80
8080
c180
4100
6300
2200
3600
1400
1c00
0800
0800
ENDCHAR
STARTCHAR registerserif
ENCODING 210
SWIDTH 790 0
DWIDTH 12 0
BBX 10 10 1 5
BITMAP
1e00
2100
7c80
9240
9240
9c40
9240
7980
2100
1e00
ENDCHAR
STARTCHAR copyrightserif
ENCODING 211
SWIDTH 790 0
DWIDTH 12 0
BBX 10 10 1 5
BITMAP
1e00
2100
4e80
9240
9040
9040
9240
4c80
2100
1e00
ENDCHAR
STARTCHAR trademarkserif
ENCODING 212
SWIDTH 890 0
DWIDTH 11 0
BBX 11 6 0 9
BITMAP
fa80
aa80
26c0
2540
2540
76e0
ENDCHAR
STARTCHAR product
ENCODING 213
SWIDTH 823 0
DWIDTH 12 0
BBX 10 13 1 3
BITMAP
ffc0
6180
6180
6180
6180
6180
6180
6180
6180
6180
6180
6180
f3c0
ENDCHAR
STARTCHAR radical
ENCODING 214
SWIDTH 549 0
DWIDTH 8 0
BBX 7 11 0 4
BITMAP
02
02
02
04
04
c4
48
28
28
10
10
ENDCHAR
STARTCHAR dotmath
ENCODING 215
SWIDTH 250 0
DWIDTH 4 0
BBX 1 2 1 8
BITMAP
80
80
ENDCHAR
STARTCHAR logicalnot
ENCODING 216
SWIDTH 713 0
DWIDTH 10 0
BBX 9 5 0 5
BITMAP
ff80
0080
0080
0080
0080
ENDCHAR
STARTCHAR logicaland
ENCODING 217
SWIDTH 603 0
DWIDTH 10 0
BBX 8 7 1 6
BITMAP
18
18
24
24
42
42
81
ENDCHAR
STARTCHAR logicalor
ENCODING 218
SWIDTH 603 0
DWIDTH 10 0
BBX 8 7 1 6
BITMAP
81
42
42
24
24
18
18
ENDCHAR
STARTCHAR arrowdblboth
ENCODING 219
SWIDTH 1042 0
DWIDTH 14 0
BBX 12 7 1 6
BITMAP
1080
2040
7fe0
c030
7fe0
2040
1080
ENDCHAR
STARTCHAR arrowdblleft
ENCODING 220
SWIDTH 987 0
DWIDTH 14 0
BBX 12 7 1 6
BITMAP
1000
2000
7ff0
c000
7ff0
2000
1000
ENDCHAR
STARTCHAR arrowdblup
ENCODING 221
SWIDTH 603 0
DWIDTH 9 0
BBX 7 12 1 3
BITMAP
10
38
6c
aa
28
28
28
28
28
28
28
28
ENDCHAR
STARTCHAR arrowdblright
ENCODING 222
SWIDTH 987 0
DWIDTH 14 0
BBX 12 7 1 6
BITMAP
0080
0040
ffe0
0030
ffe0
0040
0080
ENDCHAR
STARTCHAR arrowdbldown
ENCODING 223
SWIDTH 603 0
DWIDTH 9 0
BBX 7 12 1 3
BITMAP
28
28
28
28
28
28
28
28
aa
6c
38
10
ENDCHAR
STARTCHAR lozenge
ENCODING 224
SWIDTH 494 0
DWIDTH 9 0
BBX 7 13 1 3
BITMAP
10
38
28
6c
44
c6
82
c6
44
6c
28
38
10
ENDCHAR
STARTCHAR angleleft
ENCODING 225
SWIDTH 480 0
DWIDTH 7 0
BBX 5 13 1 3
BITMAP
18
10
30
20
60
40
c0
40
60
20
30
10
18
ENDCHAR
STARTCHAR registersans
ENCODING 226
SWIDTH 790 0
DWIDTH 12 0
BBX 10 10 1 5
BITMAP
1e00
2100
5c80
9240
9240
9c40
9240
5280
2100
1e00
ENDCHAR
STARTCHAR copyrightsans
ENCODING 227
SWIDTH 790 0
DWIDTH 12 0
BBX 10 10 1 5
BITMAP
1e00
2100
4c80
9240
9040
9040
9240
4c80
2100
1e00
ENDCHAR
STARTCHAR trademarksans
ENCODING 228
SWIDTH 786 0
DWIDTH 11 0
BBX 10 6 0 9
BITMAP
fa80
2280
26c0
2540
2540
2440
ENDCHAR
STARTCHAR summation
ENCODING 229
SWIDTH 713 0
DWIDTH 12 0
BBX 10 13 1 3
BITMAP
ff80
c080
6000
3000
1800
0c00
0600
0c00
1800
3000
6000
c0c0
ffc0
ENDCHAR
STARTCHAR parenlefttp
ENCODING 230
SWIDTH 384 0
DWIDTH 6 0
BBX 4 20 1 -1
BITMAP
10
20
40
40
80
80
80
80
80
80
80
80
80
80
80
80
80
80
80
80
ENDCHAR
STARTCHAR parenleftex
ENCODING 231
SWIDTH 384 0
DWIDTH 6 0
BBX 1 20 1 -1
BITMAP
80
80
80
80
80
80
80
80
80
80
80
80
80
80
80
80
80
80
80
80
ENDCHAR
STARTCHAR parenleftbt
ENCODING 232
SWIDTH 384 0
DWIDTH 6 0
BBX 4 20 1 -1
BITMAP
80
80
80
80
80
80
80
80
80
80
80
80
80
80
80
80
40
40
20
10
ENDCHAR
STARTCHAR bracketlefttp
ENCODING 233
SWIDTH 384 0
DWIDTH 6 0
BBX 4 20 1 -1
BITMAP
f0
80
80
80
80
80
80
80
80
80
80
80
80
80
80
80
80
80
80
80
ENDCHAR
STARTCHAR bracketleftex
ENCODING 234
SWIDTH 384 0
DWIDTH 6 0
BBX 1 20 1 -1
BITMAP
80
80
80
80
80
80
80
80
80
80
80
80
80
80
80
80
80
80
80
80
ENDCHAR
STARTCHAR bracketleftbt
ENCODING 235
SWIDTH 384 0
DWIDTH 6 0
BBX 4 17 1 2
BITMAP
80
80
80
80
80
80
80
80
80
80
80
80
80
80
80
80
f0
ENDCHAR
STARTCHAR bracelefttp
ENCODING 236
SWIDTH 494 0
DWIDTH 7 0
BBX 4 20 3 -1
BITMAP
30
40
80
80
80
80
80
80
80
80
80
80
80
80
80
80
80
80
80
80
ENDCHAR
STARTCHAR braceleftmid
ENCODING 237
SWIDTH 494 0
DWIDTH 7 0
BBX 3 20 1 -1
BITMAP
20
20
20
20
20
20
20
20
40
80
40
20
20
20
20
20
20
20
20
20
ENDCHAR
STARTCHAR braceleftbt
ENCODING 238
SWIDTH 494 0
DWIDTH 7 0
BBX 4 17 3 2
BITMAP
80
80
80
80
80
80
80
80
80
80
80
80
80
80
80
40
30
ENDCHAR
STARTCHAR braceex
ENCODING 239
SWIDTH 494 0
DWIDTH 7 0
BBX 1 20 3 -1
BITMAP
80
80
80
80
80
80
80
80
80
80
80
80
80
80
80
80
80
80
80
80
ENDCHAR
STARTCHAR apple
ENCODING 240
SWIDTH 790 0
DWIDTH 12 0
BBX 10 12 1 5
BITMAP
0300
0700
0600
7580
ffc0
ff00
ff00
ff00
ffc0
7fc0
3f80
1b00
ENDCHAR
STARTCHAR angleright
ENCODING 241
SWIDTH 480 0
DWIDTH 7 0
BBX 5 13 1 3
BITMAP
c0
40
60
20
30
10
18
10
30
20
60
40
c0
ENDCHAR
STARTCHAR integral
ENCODING 242
SWIDTH 274 0
DWIDTH 8 0
BBX 6 13 1 3
BITMAP
1c
34
30
30
30
30
30
30
30
30
30
b0
e0
ENDCHAR
STARTCHAR integraltp
ENCODING 243
SWIDTH 686 0
DWIDTH 10 0
BBX 5 20 5 -1
BITMAP
38
58
40
80
80
80
80
80
80
80
80
80
80
80
80
80
80
80
80
80
ENDCHAR
STARTCHAR integralex
ENCODING 244
SWIDTH 686 0
DWIDTH 10 0
BBX 1 20 1 -1
BITMAP
80
80
80
80
80
80
80
80
80
80
80
80
80
80
80
80
80
80
80
80
ENDCHAR
STARTCHAR integralbt
ENCODING 245
SWIDTH 686 0
DWIDTH 10 0
BBX 5 17 1 2
BITMAP
08
08
08
08
08
08
08
08
08
08
08
08
08
08
10
d0
e0
ENDCHAR
STARTCHAR parenrighttp
ENCODING 246
SWIDTH 384 0
DWIDTH 6 0
BBX 4 20 1 -1
BITMAP
80
40
20
20
10
10
10
10
10
10
10
10
10
10
10
10
10
10
10
10
ENDCHAR
STARTCHAR parenrightex
ENCODING 247
SWIDTH 384 0
DWIDTH 6 0
BBX 1 20 4 -1
BITMAP
80
80
80
80
80
80
80
80
80
80
80
80
80
80
80
80
80
80
80
80
ENDCHAR
STARTCHAR parenrightbt
ENCODING 248
SWIDTH 384 0
DWIDTH 6 0
BBX 4 20 1 -1
BITMAP
10
10
10
10
10
10
10
10
10
10
10
10
10
10
10
10
20
20
40
80
ENDCHAR
STARTCHAR bracketrighttp
ENCODING 249
SWIDTH 384 0
DWIDTH 6 0
BBX 4 20 1 -1
BITMAP
f0
10
10
10
10
10
10
10
10
10
10
10
10
10
10
10
10
10
10
10
ENDCHAR
STARTCHAR bracketrightex
ENCODING 250
SWIDTH 384 0
DWIDTH 6 0
BBX 1 20 4 -1
BITMAP
80
80
80
80
80
80
80
80
80
80
80
80
80
80
80
80
80
80
80
80
ENDCHAR
STARTCHAR bracketrightbt
ENCODING 251
SWIDTH 384 0
DWIDTH 6 0
BBX 4 17 1 2
BITMAP
10
10
10
10
10
10
10
10
10
10
10
10
10
10
10
10
f0
ENDCHAR
STARTCHAR bracerighttp
ENCODING 252
SWIDTH 494 0
DWIDTH 7 0
BBX 4 20 0 -1
BITMAP
c0
20
10
10
10
10
10
10
10
10
10
10
10
10
10
10
10
10
10
10
ENDCHAR
STARTCHAR bracerightmid
ENCODING 253
SWIDTH 494 0
DWIDTH 7 0
BBX 3 20 3 -1
BITMAP
80
80
80
80
80
80
80
80
40
20
40
80
80
80
80
80
80
80
80
80
ENDCHAR
STARTCHAR bracerightbt
ENCODING 254
SWIDTH 494 0
DWIDTH 7 0
BBX 4 17 0 2
BITMAP
10
10
10
10
10
10
10
10
10
10
10
10
10
10
10
20
c0
ENDCHAR
ENDFONT
